<svg xmlns="http://www.w3.org/2000/svg" width="459.434" height="250.211" viewBox="0 0 459.434 250.211"><defs><style>.a{fill:#3f3d56;}.b{fill:#2f2e41;}.c{fill:#c1121f;}</style></defs><g transform="translate(0 0)"><path class="a" d="M.517,420.57H459.434v-1.035H.517a.517.517,0,0,0-.517.517H0A.517.517,0,0,0,.517,420.57Z" transform="translate(0 -202.476)"/><path class="a" d="M385.376,226.89c2.587,12.417,17.332-2.846,17.332-2.846l17.591-2.07s11.124.259,18.367,5.95,12.158-1.811,12.158-1.811c8.161,2.72,18.158,2.709,26.817,1.838a27.164,27.164,0,0,0,24.193-23.308c9.673-70.075-43.508-104.512-43.508-104.512L442.805,58.224s4.915-12.158,6.467-23.023-9.83-21.213-23.8-31.56c-6.112-4.527-13.114-4.2-19.059-2.4a33.925,33.925,0,0,0-16.784,11.649c-3.561,4.543-9.668,10.976-16.382,12.091a14.685,14.685,0,0,0-6.757,2.98c-2.214,1.733-3.192,4.625-3.223,8.221C363.1,51.886,376.074,70.8,387.446,73.745c13.969,3.622,6.467,38.027,6.467,38.027-22.765,32.078-6.726,67.777-6.726,67.777l-4.139,28.973s-.259,5.95,2.328,18.367h0Z" transform="translate(-175.32 0)"/><path class="a" d="M515.951,305.191l-5.691,70.881s7.761,19.66-18.626,18.626-10.865-41.39-10.865-41.39l8.278-52.773" transform="translate(-229.84 -145.044)"/><path class="b" d="M493.1,394.773q-.968,0-1.984-.04c-5.841-.229-10.142-2.38-12.785-6.394-7.555-11.476.848-34.1,1.437-35.647l8.27-52.719a.518.518,0,1,1,1.023.161l-8.278,52.773a.557.557,0,0,1-.028.106c-.09.234-8.926,23.57-1.558,34.759,2.448,3.718,6.472,5.713,11.96,5.928,8.616.336,14.41-1.5,17.228-5.468,3.686-5.188.925-12.379.9-12.452a.522.522,0,0,1-.034-.231l5.691-70.881a.517.517,0,1,1,1.032.083l-5.682,70.765c.376,1.015,2.733,7.97-1.055,13.309-2.8,3.951-8.225,5.948-16.132,5.948Z" transform="translate(-229.337 -144.562)"/><path class="a" d="M418.736,337.535s1.552,65.707-31.043,64.155-3.1-22.247-3.1-22.247l2.846-8.019" transform="translate(-179.706 -162.901)"/><path class="b" d="M388.33,401.752c-.378,0-.759-.009-1.143-.027-9.307-.443-14.565-2.528-15.629-6.2-1.916-6.612,10.575-15.791,12.116-16.894l2.791-7.865a.517.517,0,0,1,.975.346l-2.846,8.019a.516.516,0,0,1-.19.251c-.136.1-13.647,9.667-11.853,15.855.927,3.2,5.868,5.032,14.684,5.452a19.781,19.781,0,0,0,15.289-5.861c16.014-15.633,15.222-57.345,15.212-57.764a.518.518,0,0,1,.505-.53.533.533,0,0,1,.53.505c.041,1.731.813,42.579-15.523,58.529a20.734,20.734,0,0,1-14.919,6.183Z" transform="translate(-179.225 -162.419)"/><path class="b" d="M363.27,59.476c3.715.445,9.53.424,14.347-2.789,5.158-3.441-.2-6.648-4.367-8.413a14.685,14.685,0,0,0-6.757,2.98C364.279,52.988,363.3,55.88,363.27,59.476Z" transform="translate(-175.321 -23.298)"/><path class="b" d="M466.933,30.008s-9.028-23.187,3.9-23.512,23.144,19.769,23.144,19.769,32.454,59.158-12.01,55.968-23.217-26.806-23.217-26.806,10.142-12.469,8.181-25.42h0Z" transform="translate(-218.954 -3.133)"/><path class="a" d="M573.232,368.3c5.726,2.547,11.709,5.147,17.972,4.9s12.853-4.282,13.828-10.473c.5-3.2-.5-6.625.728-9.62,1.646-4.03,6.957-5.584,11.085-4.2s7.161,4.942,9.335,8.713c4.068,7.055,5.7,16.315,1.336,23.193-3.781,5.962-10.953,8.656-17.625,10.967-8.886,3.078-18.807,6.133-27.418,2.352-8.66-3.8-13.377-14.789-10.17-23.687" transform="translate(-275.718 -168.148)"/><path class="c" d="M478.269,165.879s11.382,5.691,5.691,11.9-40.873,23.8-53.808,21.213-16.039-10.348-16.039-12.417.976-27.1,5.115-26.069,30.067,24.517,59.04,5.374Z" transform="translate(-199.86 -77.448)"/></g></svg>