<svg xmlns="http://www.w3.org/2000/svg" width="74.622" height="68.734" viewBox="0 0 74.622 68.734"><defs><style>.a{fill:#780000;}.b{fill:#c1121f;}</style></defs><g transform="translate(-2.02 -3.63)"><path class="a" d="M31.549,21.967,21.105,4.553a1.875,1.875,0,0,0-2.634-.621A37.35,37.35,0,0,0,2.022,32.384a1.89,1.89,0,0,0,1.86,1.976l20.284.337a15.124,15.124,0,0,1,7.382-12.729ZM61.891,5.092a1.886,1.886,0,0,0-2.728.565L48.712,23.086A15.079,15.079,0,0,1,54.5,34.73l20.277-.337a1.9,1.9,0,0,0,1.867-1.983A37.365,37.365,0,0,0,61.891,5.092ZM46.673,48.163a14.683,14.683,0,0,1-14.686,0L22.1,65.955a1.871,1.871,0,0,0,.775,2.589,37.337,37.337,0,0,0,32.905,0,1.871,1.871,0,0,0,.775-2.589L46.673,48.163Z" transform="translate(0 0)"/><circle class="b" cx="11.225" cy="11.225" r="11.225" transform="translate(28.136 23.722)"/></g></svg>