<svg xmlns="http://www.w3.org/2000/svg" width="229.292" height="353.282" viewBox="0 0 229.292 353.282"><defs><style>.a{opacity:0.2;}.b{fill:#e6e6e6;}.c{fill:#3f3d56;}.d,.j{fill:#c1121f;}.d,.e,.f{opacity:0.56;}.e,.h{fill:#ffb8b8;}.f,.k{fill:#2f2e41;}.g{fill:#ccc;}.i{fill:#fff;}</style></defs><g transform="translate(0 -0.002)"><path class="a" d="M336.369,145l-3.478-.012-13.34-.04-2.963-.006-8.986-.023-2.221-.012H304.4l-46.34-.127-.736-.006h-.7l-2.817-.011-7.954-.018-3.838-.011-7.966-.023V29.335l98.268-8.679,3.479-.307Z" transform="translate(-108.237 -9.41)"/><path class="b" d="M716.617,266.371v.012l-9.74-.029-3.6-.012-2.963-.006-4.255-.012-1.7-.006-3.026-.006-1.571-.006h-.655l-.968-.006h-.017l-7.311-.017-1.322-.006-18.743-.052-3.368-.012-13.746-.041-1.849-.006h-.742a.018.018,0,0,0,.006-.012h-.7l-2.818-.012-7.954-.017v.006l-3.838-.012-2.638-.006h-.591l-8.215-.023V150.722l101.747-8.986v.307Z" transform="translate(-491.963 -130.796)"/><circle class="a" cx="4.058" cy="4.058" r="4.058" transform="translate(169.288 0.794)"/><circle class="c" cx="4.058" cy="4.058" r="4.058" transform="translate(166.969 0.794)"/><rect class="a" width="63.773" height="4.638" transform="translate(141.375 5.081) rotate(-4.568)"/><rect class="b" width="63.773" height="4.638" transform="translate(139.056 5.081) rotate(-4.568)"/><path class="d" d="M711.8,305.391c-3.409-12.917-5.224-13.914-5.224-13.914L687.35,281.8l-.128-.046-10.807,7.972-4.655-7.166-.232-.2s-.1.041-.29.116a106.367,106.367,0,0,0-16.651,8.453l-.2-.029-7.531,3.745-1.351,4.992-1.56,5.757-5.369,24.941v.006l3.838.012v-.006l7.954.017,1.252-6.145,1.565,6.157h.7a.018.018,0,0,1-.006.012h.742l1.849.006,13.746.041,3.368.012,18.743.052,1.322.006,7.311.017h.017l.968.006v-.017l.5-5.432.3-1.519,1.42,6.963.006.012,3.026.006,1.7.006,4.255.012,2.963.006v-.012C715.306,325.022,713.05,310.145,711.8,305.391Z" transform="translate(-503.196 -195.55)"/><path class="e" d="M720.811,245.339l.007.026c-.009,0-.011-.007-.007-.026-.077-.265-1.047-3.391-3.827-1.782-2.9,1.679-6.367-8.861-6.367-8.861s-8.732,2.4-14.062,2.035a3.3,3.3,0,0,1-1.05-.253,13.6,13.6,0,0,0,2.561,15.464l-.941,8.388,4.838,7.525,10.751-8.063s.136,2.052.577-4.977a13.614,13.614,0,0,0,7.908-10.386C720.98,244.927,720.828,245.249,720.811,245.339Z" transform="translate(-528.895 -173.787)"/><path class="f" d="M720.628,237.143c1.188-2.7,4.371-10.654-1.219-15.446-4.625-3.964-20.939-7.5-26.153,3.023a3.274,3.274,0,0,0,1.678,4.47c.075-.156.161-.305.242-.458a3.213,3.213,0,0,0,.809.173c5.33.368,14.062-2.035,14.062-2.035s3.467,10.54,6.367,8.861c2.779-1.609,3.75,1.517,3.827,1.782.017-.09.169-.412.387-.908a13.7,13.7,0,0,0,.143-1.815c0,.107.008.213.008.32a13.7,13.7,0,0,1-.152,2.035Z" transform="translate(-528.325 -165.961)"/><ellipse class="b" cx="89.282" cy="13.914" rx="89.282" ry="13.914" transform="translate(0 325.455)"/><path class="c" d="M307.278,472.043l-19.422,22.483-.36.417L173.645,477.551V347.686H306.988Z" transform="translate(-80.305 -160.792)"/><rect class="b" width="1.159" height="23.255" transform="matrix(0.075, -0.997, 0.997, 0.075, 104.602, 237.041)"/><rect class="b" width="1.159" height="24.412" transform="translate(161.421 242.259) rotate(-85.914)"/><path class="b" d="M287.322,409.111,173.11,402.154l-.07,1.157,52.215,3.181.888,104.4,1.159-.01-.887-104.323,60.836,3.706Z" transform="translate(-80.025 -185.981)"/><path class="a" d="M405.539,472.043l-19.422,22.483V347.686h19.132Z" transform="translate(-178.566 -160.792)"/><path class="b" d="M565.946,460.459H555.51V453.5l27.828-5.218,1.739-3.479,108.993,2.9v9.856L672.33,465.5l-14.2-.4s-21.451,17.972-46.96,16.233S565.946,460.459,565.946,460.459Z" transform="translate(-464.779 -270.956)"/><path class="g" d="M683.929,459.654,677.841,464l-17.051-.412c0,.006-.006,0-.006,0h-.029l-1.3-.029h-.006l-1.078-.029-3.4-.081-.284-.006-3.009-.07-.11-.006-3.739-.087-.244-.006-2.765-.07-.446-.006-3.247-.081-1.044-.023-5.838-.139-1.473-.035-15.514-.371s-11.056.551-11.578-2.661a1.581,1.581,0,0,1-.017-.238c0-1.826,1.925-2.215,3.745-2.168a16.9,16.9,0,0,1,3.212.429l4.453.11,2.777.064,8.714.215,7.45.18,2.638.07,3.774.093,1.5.035,5.554.133,2.6.064,5.484.133Z" transform="translate(-487.973 -276.818)"/><circle class="c" cx="1.16" cy="1.16" r="1.16" transform="translate(162.331 183.416)"/><ellipse class="g" cx="11.015" cy="1.16" rx="11.015" ry="1.16" transform="translate(153.055 179.357)"/><path class="c" d="M4.3,0h9.894V4.638H0V4.3A4.3,4.3,0,0,1,4.3,0Z" transform="matrix(0.972, 0.237, -0.237, 0.972, 153, 164.762)"/><path class="c" d="M0,0H5.218V.169a2.15,2.15,0,0,1-2.15,2.15H2.15A2.15,2.15,0,0,1,0,.169V0Z" transform="translate(153.546 169.418) rotate(8.546)"/><path class="a" d="M683.095,437.443l-7.209-1.757a2.311,2.311,0,0,1-2.413,1.268l-.573-.086a2.311,2.311,0,0,1-1.961-2.388l-1.228-.3a4.632,4.632,0,0,0-.406,1.06l1.634.4a2.311,2.311,0,0,0,1.961,2.388l.573.086a2.311,2.311,0,0,0,2.413-1.268l7.209,1.757,1.1-4.506-.267-.065Z" transform="translate(-517.405 -265.973)"/><path class="c" d="M689.055,443.822h0a4.234,4.234,0,0,1-4.228-4.456l.635-12.067,7.827-.29v12.579a4.234,4.234,0,0,1-4.234,4.234Z" transform="translate(-524.581 -262.726)"/><path class="c" d="M692.189,421.564h-7.048c1.222-1.854.46-3.754-1.251-5.676a.771.771,0,0,1,.579-1.281h2.686c2.781,0,5.035,2.6,5.035,5.8Z" transform="translate(-524.061 -256.99)"/><path class="a" d="M686.208,415.887a.771.771,0,0,1,.579-1.281h-2.319a.771.771,0,0,0-.579,1.281c1.711,1.922,2.473,3.822,1.251,5.676h2.319C688.681,419.709,687.919,417.809,686.208,415.887Z" transform="translate(-524.06 -256.99)"/><path class="h" d="M624.31,440.262l8.916,3.152s21.209,1.692,18.457,7.087-20.9,1.909-20.9,1.909l-8.6-5.969Z" transform="translate(-495.612 -268.854)"/><path class="i" d="M645.474,453.038a2.313,2.313,0,0,0-2.307,2.2,1.736,1.736,0,0,0-.436-.293,2.326,2.326,0,1,0-1.936.317,1.737,1.737,0,1,0,2.907,1.575,2.315,2.315,0,1,0,1.772-3.8Z" transform="translate(-503.435 -273.68)"/><path class="i" d="M653.024,455.195a2.313,2.313,0,0,0-2.307,2.2,1.732,1.732,0,0,0-.436-.293,2.326,2.326,0,1,0-1.936.317,1.737,1.737,0,1,0,2.907,1.575,2.315,2.315,0,1,0,1.772-3.8Z" transform="translate(-506.927 -274.678)"/><path class="j" d="M579.51,381.038l-8.071,13.329-16.969-11.392L534.979,369.9l-11.752-30.855-11.949-21.88,14.975-4.412s5.154.2,11.815,12.424,12.586,33.405,12.586,33.405l7.96,6.2Z" transform="translate(-444.324 -209.884)"/><path class="a" d="M579.51,381.038l-8.071,13.329-16.969-11.392L534.979,369.9l-11.752-30.855-11.949-21.88,14.975-4.412s5.154.2,11.815,12.424,12.586,33.405,12.586,33.405l7.96,6.2Z" transform="translate(-444.324 -209.884)"/><path class="h" d="M685.656,458.352l-20.674-.493L663.341,456l-1.159-1.316-1.27-1.438L659.5,451.65l2.4-3.722,1.142-1.774,4.626,3.038,3.281,2.151s2.748.916,6.018,2.3A39.987,39.987,0,0,1,685.656,458.352Z" transform="translate(-512.872 -271.579)"/><circle class="h" cx="14.176" cy="14.176" r="14.176" transform="translate(78.591 52.198)"/><path class="h" d="M537.639,252.116l-1.418,20.556,17.72,2.126s0-17.011,1.418-19.138S537.639,252.116,537.639,252.116Z" transform="translate(-455.859 -181.844)"/><path class="j" d="M559.712,289.322l-22.953-9.72s-10.965-8.46-17.4-2.205l-2.888,4.129s-17.588,9.456-17.588,17.253l1.994,39.452s-5.671,21.973,2.835,23.391l46.073,4.253a15.945,15.945,0,0,0,.709-17.72l2.126-23.391Z" transform="translate(-438.593 -192.469)"/><path class="j" d="M583.033,302.274l15.594-.709s1.143,1.206,4.687,14.673,8.072,35.652,8.072,35.652l22.655,28.7-11.015,11.015L593.458,359.14l-4.046-32.767Z" transform="translate(-477.507 -204.712)"/><path class="k" d="M546.313,437.482,495.352,433s-5.035,32.127-4.326,44.886,1.418,32.605,1.418,32.605l-5.67,86.475,21.973-2.835,2.835-71.59,9.215-38.985,10.632,49.617,7.088,63.793,19.138-2.126-6.38-77.26S556.946,448.115,546.313,437.482Z" transform="translate(-432.99 -265.495)"/><path class="k" d="M598.528,727.483l6.379,2.126s13.467-3.544,9.923,5.671-13.467,7.8-13.467,7.8-12.05,9.215-17.012,2.126l2.835-14.885Z" transform="translate(-478.117 -401.684)"/><path class="k" d="M502.268,727.483l6.379,2.126s13.467-3.544,9.923,5.671-13.467,7.8-13.467,7.8-12.05,9.215-17.011,2.126l2.835-14.885Z" transform="translate(-433.6 -401.684)"/><path class="k" d="M530.817,241.248s-14.885-10.632-7.088-23.391c5.409-8.851,16.617-8.151,22.975-6.891a10.741,10.741,0,0,1,7.858,6.182c1.063,2.481,1.063,4.962-3.19,4.962-8.506,0-4.253,6.379-4.253,6.379s-5.67,1.418-4.253,6.379S530.817,241.248,530.817,241.248Z" transform="translate(-449.036 -162.47)"/><circle class="i" cx="1.739" cy="1.739" r="1.739" transform="translate(170.447 183.416)"/><path class="i" d="M688.845,460.188a2.3,2.3,0,0,0-.864-1.8,2.329,2.329,0,0,0-1.455-.516c-.029,0-.052.006-.081.006a2.309,2.309,0,0,0-4.342-.388,1.719,1.719,0,0,0-2.2.522,20.043,20.043,0,0,1-4.974-1.3,2.3,2.3,0,0,0-2.081,1.31,2.21,2.21,0,0,0-.238,1.009,2.285,2.285,0,0,0,.336,1.183,1.737,1.737,0,0,0-1.5,1.716,1.669,1.669,0,0,0,.1.568l3.247.081a1.565,1.565,0,0,0,.1-.33,2.386,2.386,0,0,0,.348.336l2.765.07.157-.122a.979.979,0,0,0,.087.128l3.739.087a.773.773,0,0,0,.064-.081.634.634,0,0,0,.046.087l3.009.07a1.71,1.71,0,0,0,.232-.649.235.235,0,0,0,.052.029,1.84,1.84,0,0,0-.029.307,1.913,1.913,0,0,0,.029.319l3.4.081a1.8,1.8,0,0,0,.046-.4,1.749,1.749,0,0,0-.371-1.067A2.3,2.3,0,0,0,688.845,460.188Zm-6.209-.046a1.775,1.775,0,0,1-.342.319c.035.087.052.18.081.267a1.653,1.653,0,0,1,.516-.371,2.264,2.264,0,0,1-.255-.214Z" transform="translate(-518.398 -276.193)"/><circle class="i" cx="1.739" cy="1.739" r="1.739" transform="translate(186.101 183.995)"/><path class="i" d="M717.966,461.267a2.3,2.3,0,0,0-.864-1.8,2.329,2.329,0,0,0-1.455-.516c-.029,0-.052.006-.081.006a2.309,2.309,0,0,0-4.342-.388,1.719,1.719,0,0,0-2.2.522,20.043,20.043,0,0,1-4.974-1.3,2.3,2.3,0,0,0-2.081,1.31,2.211,2.211,0,0,0-.238,1.009,2.285,2.285,0,0,0,.336,1.183,1.737,1.737,0,0,0-1.5,1.716,1.671,1.671,0,0,0,.1.568l3.247.081a1.56,1.56,0,0,0,.1-.33,2.385,2.385,0,0,0,.348.336l2.765.07.157-.122a.976.976,0,0,0,.087.128l3.739.087a.775.775,0,0,0,.064-.081.631.631,0,0,0,.047.087l3.009.07a1.71,1.71,0,0,0,.232-.649.238.238,0,0,0,.052.029,1.846,1.846,0,0,0-.029.307,1.912,1.912,0,0,0,.029.319l3.4.081a1.8,1.8,0,0,0,.046-.4,1.749,1.749,0,0,0-.371-1.067A2.3,2.3,0,0,0,717.966,461.267Zm-6.209-.046a1.775,1.775,0,0,1-.342.319c.035.087.052.18.081.267a1.652,1.652,0,0,1,.516-.371,2.267,2.267,0,0,1-.255-.215Z" transform="translate(-531.866 -276.692)"/><circle class="i" cx="1.304" cy="1.304" r="1.304" transform="translate(161.461 183.706)"/><path class="i" d="M675.869,461.331a1.727,1.727,0,0,0-.648-1.352,1.747,1.747,0,0,0-1.091-.387c-.022,0-.039,0-.061,0a1.732,1.732,0,0,0-3.257-.291,1.289,1.289,0,0,0-1.648.391,15.031,15.031,0,0,1-3.731-.974,1.728,1.728,0,0,0-1.561.983,1.656,1.656,0,0,0-.178.757,1.714,1.714,0,0,0,.252.887,1.3,1.3,0,0,0-1.122,1.287,1.254,1.254,0,0,0,.074.426l2.435.061a1.174,1.174,0,0,0,.074-.248,1.792,1.792,0,0,0,.261.252l2.074.052.117-.091a.732.732,0,0,0,.065.1l2.8.065a.58.58,0,0,0,.048-.061.46.46,0,0,0,.035.065l2.257.052a1.282,1.282,0,0,0,.174-.487.174.174,0,0,0,.039.022,1.377,1.377,0,0,0-.022.23,1.435,1.435,0,0,0,.022.239l2.552.061a1.349,1.349,0,0,0,.035-.3,1.311,1.311,0,0,0-.278-.8A1.727,1.727,0,0,0,675.869,461.331Zm-4.657-.035a1.331,1.331,0,0,1-.256.239c.026.065.039.135.061.2a1.239,1.239,0,0,1,.387-.278,1.71,1.71,0,0,1-.191-.161Z" transform="translate(-514.408 -277.191)"/><circle class="i" cx="1.304" cy="1.304" r="1.304" transform="translate(142.909 183.706)"/><path class="i" d="M641.356,461.331a1.727,1.727,0,0,0-.648-1.352,1.747,1.747,0,0,0-1.091-.387c-.022,0-.039,0-.061,0a1.732,1.732,0,0,0-3.257-.291,1.289,1.289,0,0,0-1.648.391,15.031,15.031,0,0,1-3.731-.974,1.728,1.728,0,0,0-1.561.983,1.657,1.657,0,0,0-.178.757,1.713,1.713,0,0,0,.252.887,1.3,1.3,0,0,0-1.122,1.287,1.253,1.253,0,0,0,.074.426l2.435.061a1.163,1.163,0,0,0,.074-.248,1.787,1.787,0,0,0,.261.252l2.074.052.117-.091a.734.734,0,0,0,.065.1l2.8.065a.583.583,0,0,0,.048-.061.477.477,0,0,0,.035.065l2.257.052a1.284,1.284,0,0,0,.174-.487.177.177,0,0,0,.039.022,1.383,1.383,0,0,0-.022.23,1.441,1.441,0,0,0,.022.239l2.552.061a1.349,1.349,0,0,0,.035-.3,1.311,1.311,0,0,0-.278-.8A1.727,1.727,0,0,0,641.356,461.331ZM636.7,461.3a1.33,1.33,0,0,1-.257.239c.026.065.039.135.061.2a1.239,1.239,0,0,1,.387-.278,1.7,1.7,0,0,1-.192-.161Z" transform="translate(-498.447 -277.191)"/><path class="c" d="M763.763,429.883V426.4h-2.9v.58c-.32,0-.58.389-.58.87s.26.87.58.87v1.16h-2.319v11.6h7.537v-11.6Z" transform="translate(-558.675 -262.446)"/></g></svg>