<svg xmlns="http://www.w3.org/2000/svg" width="846.67" height="497.803" viewBox="0 0 846.67 497.803"><defs><style>.a{fill:#fff;}.b{fill:#3f3d56;}.c{fill:#e6e6e6;}.d{fill:#ff6584;}.e{fill:#ccc;}.f{fill:#f2f2f2;}.g{fill:#2f2e41;}.h{fill:#a0616a;}.i{fill:#c1121f;}</style></defs><g transform="translate(0 0)"><path class="a" d="M313.74,257.809A25.667,25.667,0,0,0,288.1,283.447V562.171a25.667,25.667,0,0,0,25.638,25.638H891.465A25.667,25.667,0,0,0,917.1,562.171V283.447a25.667,25.667,0,0,0-25.638-25.638Z" transform="translate(-176.665 -201.098)"/><path class="b" d="M891.465,588.809H313.74A26.668,26.668,0,0,1,287.1,562.171V283.447a26.668,26.668,0,0,1,26.638-26.638H891.465A26.668,26.668,0,0,1,918.1,283.447V562.171A26.668,26.668,0,0,1,891.465,588.809Zm-577.725-330A24.665,24.665,0,0,0,289.1,283.447V562.171a24.665,24.665,0,0,0,24.638,24.638H891.465A24.665,24.665,0,0,0,916.1,562.171V283.447a24.665,24.665,0,0,0-24.638-24.638Z" transform="translate(-176.665 -201.098)"/><ellipse class="c" cx="2.028" cy="7.745" rx="2.028" ry="7.745" transform="matrix(0.04, -0.999, 0.999, 0.04, 288.209, 373.51)"/><ellipse class="b" cx="2.028" cy="7.745" rx="2.028" ry="7.745" transform="matrix(0.04, -0.999, 0.999, 0.04, 337.517, 370.899)"/><ellipse class="d" cx="2.028" cy="7.745" rx="2.028" ry="7.745" transform="matrix(0.04, -0.999, 0.999, 0.04, 269.266, 358.297)"/><ellipse class="c" cx="1.821" cy="3.446" rx="1.821" ry="3.446" transform="translate(253.964 352.355) rotate(-83.498)"/><ellipse class="b" cx="1.821" cy="3.446" rx="1.821" ry="3.446" transform="translate(242.586 340.702) rotate(-83.498)"/><ellipse class="c" cx="1.821" cy="3.446" rx="1.821" ry="3.446" transform="translate(306.887 360.544) rotate(-83.498)"/><ellipse class="d" cx="1.821" cy="3.446" rx="1.821" ry="3.446" transform="translate(284.323 365.502) rotate(-83.498)"/><ellipse class="b" cx="1.821" cy="3.446" rx="1.821" ry="3.446" transform="translate(320.819 373.49) rotate(-83.498)"/><path class="e" d="M176.665,532.211a1.186,1.186,0,0,0,1.19,1.19h844.29a1.19,1.19,0,1,0,0-2.38H177.855a1.186,1.186,0,0,0-1.19,1.19Z" transform="translate(-176.665 -201.098)"/><path class="f" d="M465.253,511.186a2.807,2.807,0,0,1-2.035-4.866l.192-.765-.076-.184a7.539,7.539,0,0,0-13.907.052c-2.274,5.478-5.17,10.966-5.883,16.758a22.3,22.3,0,0,0,.391,7.671,89.419,89.419,0,0,1-8.134-37.139,86.31,86.31,0,0,1,.535-9.628q.443-3.931,1.231-7.807a90.456,90.456,0,0,1,17.939-38.337,24.073,24.073,0,0,0,10.012-10.387,18.361,18.361,0,0,0,1.67-5.018c-.487.064-1.838-7.359-1.47-7.815-.679-1.031-1.895-1.543-2.637-2.549-3.689-5-8.773-4.129-11.426,2.669-5.669,2.861-5.724,7.606-2.245,12.169,2.213,2.9,2.517,6.832,4.459,9.94-.2.256-.408.5-.607.759a91.039,91.039,0,0,0-9.5,15.054,37.846,37.846,0,0,0-2.259-17.579c-2.163-5.217-6.216-9.611-9.786-14.121-4.288-5.418-13.08-3.053-13.836,3.814q-.011.1-.021.2.8.449,1.557.952a3.808,3.808,0,0,1-1.535,6.93l-.078.012a37.89,37.89,0,0,0,1,5.665c-4.579,17.71,5.307,24.16,19.424,24.45.312.16.615.32.927.471a92.923,92.923,0,0,0-5,23.539,88.135,88.135,0,0,0,.064,14.231l-.024-.168a23.289,23.289,0,0,0-7.95-13.448c-6.118-5.026-14.762-6.877-21.363-10.917a4.371,4.371,0,0,0-6.694,4.252q.013.088.027.176a25.583,25.583,0,0,1,2.868,1.382q.8.449,1.557.952a3.808,3.808,0,0,1-1.535,6.93l-.078.012-.16.024a37.922,37.922,0,0,0,6.975,10.923c2.863,15.46,15.162,16.927,28.317,12.425h.008a92.9,92.9,0,0,0,6.24,18.218h22.293c.08-.248.152-.5.224-.751a25.332,25.332,0,0,1-6.169-.367c1.654-2.03,3.308-4.075,4.962-6.1a1.4,1.4,0,0,0,.1-.12c.839-1.039,1.686-2.069,2.525-3.108h0a37.1,37.1,0,0,0-1.087-9.451Z" transform="translate(-176.665 -201.098)"/><path class="f" d="M353.966,498.817a4.552,4.552,0,0,1-3.3-7.89l.312-1.24-.124-.3a12.224,12.224,0,0,0-22.549.084c-3.688,8.882-8.383,17.78-9.54,27.171a36.164,36.164,0,0,0,.635,12.437,144.987,144.987,0,0,1-13.189-60.218,139.936,139.936,0,0,1,.868-15.612q.719-6.374,2-12.658a146.667,146.667,0,0,1,29.085-62.161,39.032,39.032,0,0,0,16.233-16.842,29.775,29.775,0,0,0,2.708-8.136c-.79.1-2.98-11.932-2.384-12.671-1.1-1.671-3.073-2.5-4.275-4.133-5.982-8.111-14.224-6.694-18.527,4.327-9.191,4.639-9.28,12.332-3.641,19.731,3.588,4.707,4.081,11.077,7.229,16.117-.324.415-.661.816-.985,1.231a147.617,147.617,0,0,0-15.407,24.409,61.364,61.364,0,0,0-3.664-28.5c-3.507-8.459-10.079-15.584-15.867-22.9-6.952-8.784-21.209-4.951-22.434,6.185q-.018.162-.035.323,1.29.727,2.525,1.544a6.174,6.174,0,0,1-2.489,11.236l-.126.019a61.438,61.438,0,0,0,1.619,9.186c-7.425,28.716,8.605,39.174,31.5,39.644.505.259,1,.518,1.5.764a150.671,150.671,0,0,0-8.11,38.167,142.907,142.907,0,0,0,.1,23.074l-.039-.272a37.762,37.762,0,0,0-12.891-21.8c-9.92-8.149-23.936-11.15-34.638-17.7-5.152-3.153-11.753.922-10.854,6.894q.022.143.044.286a41.486,41.486,0,0,1,4.651,2.241q1.29.728,2.525,1.544a6.175,6.175,0,0,1-2.489,11.236l-.126.019-.259.039a61.49,61.49,0,0,0,11.31,17.71c4.643,25.068,24.584,27.446,45.915,20.146h.013a150.623,150.623,0,0,0,10.118,29.54H353.06c.13-.4.246-.816.363-1.218a41.068,41.068,0,0,1-10-.6c2.682-3.291,5.364-6.608,8.045-9.9a2.246,2.246,0,0,0,.168-.194c1.36-1.684,2.734-3.355,4.094-5.04v0a60.159,60.159,0,0,0-1.763-15.324Z" transform="translate(-176.665 -201.098)"/><path class="g" d="M848.654,219.139c-2.427-18.6-45.329-17.413-49.38.086-2.149-1.344-7.615-.414-9.654,1.131s-3.345,3.816-4.625,6.02c-1.746,3.062-3.557,6.234-3.943,9.744-.4,3.5.974,7.474,4.151,9.034,2.52,1.243,8.066.4,10.836-.153,1.933-.384,3.556-.721,4.933-1.051a9.474,9.474,0,0,0-.9-6.415,7.69,7.69,0,0,1,5.277,3.9c.217.419,8.077,59.586,8.077,59.586a34.143,34.143,0,0,0,6.476.162,74.293,74.293,0,0,0,.723-22.077,64.336,64.336,0,0,1,5.369,13.249,78.634,78.634,0,0,1,1.822,7.82c18.706-3.5,43.993-15.546,48.607-36l-.076-.2a2.906,2.906,0,0,1,4.784-3.107c.564.58,1.067,1.077,1.491,1.461C880.98,249.267,871.07,237.51,848.654,219.139Z" transform="translate(-176.665 -201.098)"/><path class="h" d="M398.857,473.567l-10.487-5.483L405,424.121l15.479,8.093Z"/><path class="g" d="M533.205,674.135a5.3,5.3,0,0,0,2.236,7.142l20.853,10.9,7.472-5.554-2.479,8.159,7.865,4.119L580.8,671.239l-2.656-1.591-10.818-6.516-3.494-2.1-3.924,7.505-22.667,2.794a5.289,5.289,0,0,0-4.038,2.8Z" transform="translate(-176.665 -201.098)"/><path class="h" d="M388.113,311.722l-7.628-9.048,32.048-34.384,11.258,13.354Z"/><path class="g" d="M525.817,496.3a5.3,5.3,0,0,0-.637,7.456l15.168,17.989,9.019-2.308-5.386,6.611,5.718,6.792,21.261-21.186-1.855-2.478-7.542-10.129-2.439-3.263-6.475,5.459-22.036-6A5.289,5.289,0,0,0,525.817,496.3Z" transform="translate(-176.665 -201.098)"/><path class="g" d="M901.2,478.916s32.386,69.319-101.729,50.64c0,0-71.454-79.188-69.39-88.716,0,0-30.412-30.9-28.924-31.465s2.406-1.785-.053-1.674-2.459-3.549-2.459-3.549-54.961,59.6-101.24,89.18l-16-18s6.24-19.519,9.24-19.519,4.034.721,4.517-3.139-1.906-7.175,1.289-7.518,69.4-77.722,69.4-77.722,7.143-25.487,28.968-20.554,135.23,97.134,135.23,97.134Z" transform="translate(-176.665 -201.098)"/><path class="g" d="M846.583,531.8,669.4,530.332l-77,122-21.761-11.519,4.824-2.036s-1.46-16.956.329-21.249,7.111-3,7.111-3L627.8,511a43.435,43.435,0,0,1,44.694-29.423c37.146-5.417,97.446-1.089,160.092,4.227Z" transform="translate(-176.665 -201.098)"/><path class="h" d="M744,324.171a13.1,13.1,0,0,1,11.012,14.577,12.572,12.572,0,0,1-.46,2.026l36.407,27.616-7.513,23.4-45.783-43.222a13.062,13.062,0,0,1-8.074-13.751,12.5,12.5,0,0,1,14.072-10.7Q743.831,324.144,744,324.171Z" transform="translate(-176.665 -201.098)"/><path class="i" d="M904.613,325.895l-13.09,36.24-51.19,72.34s-.42-.18-1.18-.5c-4.4-1.9-20.38-8.88-35.41-16.81-14.11-7.45-27.4-15.74-29.46-21.44q-.33-.9-.6-1.74v-.01a37.51,37.51,0,0,1-1.79-8.96c-.17-2.35-.02-3.61-.34-3.76-.25-.11-.77.43-1.92,1.65-.08.08-.15.16-.23.23-4.16,4.17-9.27,3.63-8.02,1.65,1.28-2.03.61-1.99-1.27-4.11-1.4-1.58-5.95-7.76-8.19-10.81-.77-1.05-1.26-1.73-1.26-1.73l.77-1.21,2.13-3.34,10.13-15.88.56-.87s20.82,4.81,23.59,9.38-4.19,4.42,2.78,4.57,14.08-9.33,8.99.1-3.75,12.71,2.55,11.22c2.56-.61,6.61,1.32,10.51,3.82v.01a82.515,82.515,0,0,1,7.05,5.13c2.41,1.94,4.04,3.41,4.04,3.41l39.54-80.22,4.38-8.88a22.668,22.668,0,0,1,13.26-11.5l1.37,2.39a271.158,271.158,0,0,1,22.3,39.63Z" transform="translate(-176.665 -201.098)"/><path class="i" d="M906.8,440.915c12.12,2.82-.774,91.045-15.22,91.32-105,2-73.03-56.91-78.66-62.55s-10.71-1.6-5.63-10.39c3.7-6.4,9.19-5.45,9.27-9.04.04-1.34-.67-3.3-2.51-6.52-6.76-11.84-6.76-15.37-6.76-15.37a43.442,43.442,0,0,1-3.55-11.2,53.185,53.185,0,0,1-.4-17.48,56.83,56.83,0,0,1,9.33-23.75v-.01c.51-.76,1.04-1.53,1.6-2.29,1.27-1.73,8.31-1.4,8.31-1.4l15-63-8.68-25.12,41.11-19.26,10.93,19.02,1.37,2.39a271.152,271.152,0,0,1,22.3,39.63c6.07,13.51,11.06,28.51,11.24,41.56.48,34.03-5.39,44.15-5.39,44.15s14.25,10.65,7.12,17.16S894.683,438.1,906.8,440.915Z" transform="translate(-176.665 -201.098)"/><path class="b" d="M720.563,315.883l-6.708,5.1a6.3,6.3,0,0,0-1.192,8.819l16.155,21.234,9.539,12.527a6.293,6.293,0,0,0,8.8,1.19l6.715-5.1a6.315,6.315,0,0,0,1.184-8.812l-.99-1.309L734.5,323.813l-5.134-6.74A6.28,6.28,0,0,0,720.563,315.883Z" transform="translate(-176.665 -201.098)"/><path class="i" d="M724.071,315.5l-7.226,5.041a5.387,5.387,0,0,0-1.179,7.971l9.458,11.4,5.04,6.071,3.363,4.05,7.521,9.061a6.579,6.579,0,0,0,8.691,1.081l5.414-3.777,1.8-1.257a5.476,5.476,0,0,0,2.338-5.6,5.4,5.4,0,0,0-1.158-2.39l-22.223-26.779-3.151-3.79a6.57,6.57,0,0,0-8.692-1.081Z" transform="translate(-176.665 -201.098)"/><path class="h" d="M728.688,343.644A13.1,13.1,0,0,1,739.7,358.221a12.565,12.565,0,0,1-.46,2.026l36.407,27.615-7.513,23.4-45.783-43.222a13.062,13.062,0,0,1-8.074-13.751,12.5,12.5,0,0,1,14.072-10.7Q728.519,343.616,728.688,343.644Z" transform="translate(-176.665 -201.098)"/><path class="i" d="M877.173,302.688h0a22.618,22.618,0,0,1,16.761,29.844l-17.719,49.073-51.2,72.346s-61.4-25.936-66.049-38.755-.451-17.242-4.649-12.819-9.521,3.9-8.246,1.875.6-1.981-1.273-4.1-9.448-12.54-9.448-12.54l13.588-21.3s20.821,4.806,23.595,9.379-4.2,4.423,2.774,4.573,14.084-9.334,8.991.093-3.75,12.714,2.551,11.22,21.595,12.374,21.595,12.374l43.929-89.1a22.618,22.618,0,0,1,24.8-12.162Z" transform="translate(-176.665 -201.098)"/><circle class="h" cx="32.592" cy="32.592" r="32.592" transform="translate(605.175 49.003) rotate(-45)"/><path class="g" d="M866.04,214.6c-2.427-18.6-45.329-17.413-49.38.086-2.149-1.344-7.615-.414-9.654,1.131s-3.345,3.816-4.625,6.02c-1.746,3.062-13.967,13.421-15.8,10.4-4.121-6.8-12.2,8.056-6,18,1.487,2.384,30.23-1.443,33-2,1.933-.384-1.377.33,0,0,.445-2.157,4.935-13.3,3.873-15.242a7.69,7.69,0,0,1,5.276,3.9c.217.419,8.077,59.586,8.077,59.586a34.138,34.138,0,0,0,6.476.162,74.3,74.3,0,0,0,.723-22.077,64.337,64.337,0,0,1,5.369,13.249,78.635,78.635,0,0,1,1.822,7.82c18.706-3.5,43.993-15.546,48.607-36C868.583,251.235,888.456,232.968,866.04,214.6Z" transform="translate(-176.665 -201.098)"/><ellipse class="c" cx="5.257" cy="7.557" rx="5.257" ry="7.557" transform="matrix(0.144, -0.99, 0.99, 0.144, 388.378, 109.99)"/><ellipse class="b" cx="5.257" cy="7.557" rx="5.257" ry="7.557" transform="matrix(0.144, -0.99, 0.99, 0.144, 437.55, 105.193)"/><ellipse class="d" cx="5.257" cy="7.557" rx="5.257" ry="7.557" transform="matrix(0.144, -0.99, 0.99, 0.144, 374.914, 70.182)"/><ellipse class="c" cx="4.776" cy="3.322" rx="4.776" ry="3.322" transform="matrix(0.008, -1, 1, 0.008, 362.579, 55.576)"/><ellipse class="b" cx="4.776" cy="3.322" rx="4.776" ry="3.322" transform="matrix(0.008, -1, 1, 0.008, 355.334, 25.204)"/><ellipse class="c" cx="4.776" cy="3.322" rx="4.776" ry="3.322" transform="matrix(0.008, -1, 1, 0.008, 411.679, 78.656)"/><ellipse class="d" cx="4.776" cy="3.322" rx="4.776" ry="3.322" transform="matrix(0.008, -1, 1, 0.008, 387.917, 90.521)"/><ellipse class="b" cx="4.776" cy="3.322" rx="4.776" ry="3.322" transform="matrix(0.008, -1, 1, 0.008, 420.994, 112.448)"/><ellipse class="b" cx="1" cy="2.5" rx="1" ry="2.5" transform="translate(537.472 132.286) rotate(-35.559)"/><ellipse class="b" cx="1" cy="2.5" rx="1" ry="2.5" transform="translate(534.472 128.286) rotate(-35.559)"/></g></svg>