<svg xmlns="http://www.w3.org/2000/svg" width="288.127" height="310.025" viewBox="0 0 288.127 310.025"><defs><style>.a{fill:#f2f2f2;}.b{fill:#fff;}.c{fill:#ccc;}.d{fill:#e6e6e6;}.e{fill:#c1121f;}.f{fill:#3f3d56;}.g{fill:#a0616a;}.h{fill:#2f2e41;}</style></defs><g transform="translate(-0.004 0)"><path class="a" d="M493.77,314.935,369.222,347.007a16.469,16.469,0,0,1-20.033-11.828L311.523,188.908a16.469,16.469,0,0,1,11.828-20.033l115.871-29.838,29.657,13.277L505.6,294.9a16.469,16.469,0,0,1-11.828,20.033Z" transform="translate(-310.999 -139.037)"/><path class="b" d="M329.3,178.491a11.728,11.728,0,0,0-8.423,14.266L358.54,339.027a11.728,11.728,0,0,0,14.266,8.423l124.547-32.072a11.728,11.728,0,0,0,8.423-14.266L469.627,160.734l-26.064-11.668Z" transform="translate(-315.764 -144.067)"/><path class="a" d="M597.273,153.462,578,158.426a5.479,5.479,0,0,1-6.672-3.939L567.66,140.25a.342.342,0,0,1,.47-.4l29.2,12.966a.342.342,0,0,1-.054.645Z" transform="translate(-439.709 -139.431)"/><path class="c" d="M546.242,412.34l-56.7,14.6a2.739,2.739,0,0,1-1.366-5.306l56.7-14.6a2.739,2.739,0,0,1,1.366,5.306Z" transform="translate(-398.819 -273.396)"/><path class="c" d="M561.811,424.647l-67.648,17.42a2.739,2.739,0,0,1-1.366-5.306l67.648-17.42a2.739,2.739,0,1,1,1.366,5.306Z" transform="translate(-401.139 -279.569)"/><circle class="d" cx="9.682" cy="9.682" r="9.682" transform="translate(57.893 151.768)"/><path class="b" d="M492.345,288.47l-75.31,19.386a8.484,8.484,0,0,1-10.319-6.095l-15.782-61.31a8.484,8.484,0,0,1,6.094-10.319l75.31-19.386a8.484,8.484,0,0,1,10.319,6.094l15.782,61.31a8.484,8.484,0,0,1-6.094,10.32Z" transform="translate(-350.951 -174.866)"/><path class="d" d="M492.345,288.47l-75.31,19.386a8.484,8.484,0,0,1-10.319-6.095l-15.782-61.31a8.484,8.484,0,0,1,6.094-10.319l75.31-19.386a8.484,8.484,0,0,1,10.319,6.094l15.782,61.31a8.484,8.484,0,0,1-6.094,10.32ZM397.277,231.1A7.486,7.486,0,0,0,391.9,240.2l15.782,61.31a7.486,7.486,0,0,0,9.105,5.377L492.1,287.5a7.486,7.486,0,0,0,5.377-9.105l-15.782-61.31a7.486,7.486,0,0,0-9.105-5.377Z" transform="translate(-350.951 -174.866)"/><path class="a" d="M506.881,249.658l-38.008,9.784a1.361,1.361,0,0,1-1.649-.857,1.311,1.311,0,0,1,.924-1.665l38.69-9.959c1.563.792,1.152,2.412.043,2.7Z" transform="translate(-389.315 -193.162)"/><path class="a" d="M510.324,263.032l-38.008,9.784a1.361,1.361,0,0,1-1.649-.857,1.311,1.311,0,0,1,.924-1.665l38.69-9.959c1.563.792,1.152,2.412.043,2.7Z" transform="translate(-391.041 -199.869)"/><path class="d" d="M442.445,280.537l-11.6,2.986a1.476,1.476,0,0,1-1.8-1.061l-3.524-13.688a1.477,1.477,0,0,1,1.061-1.8l11.6-2.986a1.477,1.477,0,0,1,1.8,1.061l3.524,13.688A1.477,1.477,0,0,1,442.445,280.537Z" transform="translate(-368.41 -201.679)"/><path class="a" d="M497.031,290.472,439.024,305.4a1.361,1.361,0,0,1-1.649-.857,1.311,1.311,0,0,1,.924-1.665l58.689-15.107c1.563.792,1.152,2.412.043,2.7Z" transform="translate(-374.345 -213.631)"/><path class="a" d="M500.475,303.85l-58.007,14.932a1.361,1.361,0,0,1-1.649-.857,1.311,1.311,0,0,1,.924-1.665l58.689-15.107c1.563.792,1.152,2.412.043,2.7Z" transform="translate(-376.072 -220.34)"/><path class="a" d="M503.916,317.219,445.91,332.151a1.361,1.361,0,0,1-1.649-.857,1.311,1.311,0,0,1,.924-1.665l58.689-15.107c1.563.792,1.152,2.412.043,2.7Z" transform="translate(-377.798 -227.044)"/><path class="a" d="M507.36,330.6l-58.007,14.932a1.361,1.361,0,0,1-1.649-.857,1.311,1.311,0,0,1,.924-1.665L507.316,327.9c1.563.792,1.152,2.412.043,2.7Z" transform="translate(-379.525 -233.753)"/><path class="a" d="M510.8,343.966,452.795,358.9a1.361,1.361,0,0,1-1.649-.857,1.311,1.311,0,0,1,.924-1.665l58.689-15.107c1.563.792,1.152,2.412.043,2.7Z" transform="translate(-381.251 -240.458)"/><path class="b" d="M444.063,461.488a1,1,0,0,1-.635-.044l-.012-.005-2.637-1.118a1.011,1.011,0,0,1,.791-1.861l1.709.727,2.24-5.269a1.011,1.011,0,0,1,1.326-.535h0l-.013.034.014-.035a1.012,1.012,0,0,1,.535,1.326l-2.635,6.195a1.012,1.012,0,0,1-.681.582Z" transform="translate(-375.773 -296.644)"/><path class="d" d="M627.536,418.658H498.925a16.469,16.469,0,0,1-16.45-16.45V251.165a16.469,16.469,0,0,1,16.45-16.45H618.576l25.41,20.253v147.24a16.469,16.469,0,0,1-16.45,16.45Z" transform="translate(-396.994 -187.02)"/><path class="b" d="M503.689,244.215a11.728,11.728,0,0,0-11.715,11.715V406.972a11.728,11.728,0,0,0,11.715,11.715H632.3a11.728,11.728,0,0,0,11.715-11.715V262.013l-22.33-17.8Z" transform="translate(-401.758 -191.784)"/><path class="e" d="M661.629,326.807H603.074a2.739,2.739,0,1,1,0-5.479h58.555a2.739,2.739,0,0,1,0,5.479Z" transform="translate(-456.101 -230.458)"/><path class="e" d="M672.929,345.354H603.074a2.739,2.739,0,1,1,0-5.479h69.855a2.739,2.739,0,1,1,0,5.479Z" transform="translate(-456.101 -239.759)"/><path class="c" d="M661.631,404.443H603.078a2.739,2.739,0,1,0,0,5.478h58.553a2.739,2.739,0,0,0,0-5.478Z" transform="translate(-456.104 -272.141)"/><path class="c" d="M672.932,422.993H603.078a2.739,2.739,0,0,0,0,5.478h69.854a2.739,2.739,0,0,0,0-5.478Z" transform="translate(-456.104 -281.444)"/><path class="c" d="M661.629,493.042H603.074a2.739,2.739,0,1,1,0-5.479h58.555a2.739,2.739,0,0,1,0,5.479Z" transform="translate(-456.101 -313.826)"/><path class="c" d="M672.929,511.589H603.074a2.739,2.739,0,1,1,0-5.479h69.855a2.739,2.739,0,1,1,0,5.479Z" transform="translate(-456.101 -323.128)"/><circle class="e" cx="9.682" cy="9.682" r="9.682" transform="translate(112.907 88.55)"/><path class="b" d="M551.684,336.1a1,1,0,0,1-.6-.2l-.011-.008-2.275-1.741a1.011,1.011,0,1,1,1.23-1.605l1.474,1.13,3.483-4.544a1.011,1.011,0,0,1,1.417-.187h0l-.022.03.022-.03a1.012,1.012,0,0,1,.187,1.417l-4.1,5.342a1.011,1.011,0,0,1-.8.394Z" transform="translate(-430.054 -234.172)"/><path class="c" d="M558.853,409.47a9.682,9.682,0,0,1-9.681,9.686,2.085,2.085,0,0,1-.249-.01,9.682,9.682,0,1,1,9.93-9.676Z" transform="translate(-425.587 -269.805)"/><circle class="c" cx="9.682" cy="9.682" r="9.682" transform="translate(112.907 171.417)"/><path class="c" d="M779.945,256h-19.9a5.479,5.479,0,0,1-5.479-5.479v-14.7a.342.342,0,0,1,.555-.268l25.041,19.837a.342.342,0,0,1-.213.611Z" transform="translate(-533.448 -187.405)"/><path class="e" d="M566.829,409.609a9.682,9.682,0,0,1-9.681,9.686,2.085,2.085,0,0,1-.249-.01,20.962,20.962,0,0,1,1.879-19.222A9.687,9.687,0,0,1,566.829,409.609Z" transform="translate(-433.563 -269.944)"/><path class="e" d="M600.334,407.185a2.747,2.747,0,0,1,2.742-2.742h14.591a20.723,20.723,0,0,1,1.8,5.478h-16.39a2.742,2.742,0,0,1-2.742-2.736Z" transform="translate(-456.101 -272.141)"/><path class="e" d="M619.807,422.993a20.9,20.9,0,0,1-.728,5.478h-16a2.739,2.739,0,0,1,0-5.478Z" transform="translate(-456.104 -281.444)"/><path class="f" d="M671.13,464.779a2.991,2.991,0,0,1-4.111,1l-34.9-21.286a2.991,2.991,0,0,1,3.115-5.107l34.9,21.286a2.991,2.991,0,0,1,1,4.111Z" transform="translate(-471.324 -289.443)"/><path class="f" d="M597.184,411.459a23.928,23.928,0,1,1-7.967-32.887,23.928,23.928,0,0,1,7.967,32.887Zm-35.748-21.8a17.946,17.946,0,1,0,24.666-5.976,17.946,17.946,0,0,0-24.666,5.976Z" transform="translate(-432.275 -257.409)"/><circle class="g" cx="12.243" cy="12.243" r="12.243" transform="translate(229.329 120.94)"/><path class="g" d="M793.751,496.494a5.484,5.484,0,0,1,4.149-7.054,5.219,5.219,0,0,1,.727-.09l12.9-20.7-11.781-11.2a4.7,4.7,0,1,1,6.541-6.756l16.265,16.038.033.04a4.259,4.259,0,0,1-.3,5.077l-18.07,21.372a5.148,5.148,0,0,1,.135.521,5.485,5.485,0,0,1-4.922,6.538q-.234.02-.465.02A5.5,5.5,0,0,1,793.751,496.494Z" transform="translate(-552.97 -294.673)"/><path class="g" d="M435.078,585.285h-6.112l-2.907-23.573h9.02Z" transform="translate(-213.67 -281.703)"/><path class="h" d="M738.452,751.954H718.746V751.7a7.67,7.67,0,0,1,7.67-7.67h12.036Z" transform="translate(-515.486 -442.449)"/><path class="g" d="M546.078,571.673l-5.251,3.127-14.558-18.766,7.75-4.615Z" transform="translate(-263.926 -276.542)"/><path class="h" d="M867.522,732.853,850.59,742.934l-.128-.214a7.67,7.67,0,0,1,2.666-10.514h0l10.341-6.157Z" transform="translate(-581.001 -433.428)"/><path class="h" d="M732.378,615.137c-4.094-48.207-6.529-92.991,8.437-111.26l.116-.142,25.187,10.075.042.09c.085.185,8.461,18.61,6.507,31l6.213,28.577L799.135,607.4a2.244,2.244,0,0,1-1.022,3.2l-8.8,3.873a2.254,2.254,0,0,1-2.816-.88l-22.035-35.931-12.446-27.56a.748.748,0,0,0-1.425.229l-6.9,64.852a2.239,2.239,0,0,1-2.231,2.006h-6.844a2.258,2.258,0,0,1-2.236-2.055Z" transform="translate(-520.76 -321.937)"/><path class="e" d="M752.141,471.833l-.12-.057-.019-.132c-.941-6.585.173-13.9,3.31-21.747a17.266,17.266,0,0,1,20.04-10.34h0a17.245,17.245,0,0,1,11,8.456,17.059,17.059,0,0,1,1.183,13.671c-3.955,11.565-9.085,22.386-9.137,22.494l-.107.226Z" transform="translate(-532.002 -289.511)"/><path class="g" d="M695.384,460.934a5.484,5.484,0,0,1,8.061,1.415,5.222,5.222,0,0,1,.339.65l23.9,4.831,6.365-14.957a4.7,4.7,0,1,1,8.619,3.761l-9.327,20.852-.026.045a4.26,4.26,0,0,1-4.859,1.5l-26.347-9.442a5.133,5.133,0,0,1-.441.309,5.485,5.485,0,0,1-7.848-2.321q-.1-.212-.182-.428a5.5,5.5,0,0,1,1.743-6.215Z" transform="translate(-502.725 -295.014)"/><path class="h" d="M824.9,401.978a9.982,9.982,0,0,0-5.169-4.776c-2.933-1-6.11.065-9.126.774a16.909,16.909,0,0,1-7.094.42,7.966,7.966,0,0,1-5.667-3.96c-1.568-3.142-.247-6.889-.342-10.4a12.629,12.629,0,0,0-15.914-11.869c-2.888-.833-5.5-.911-7.289,1.31a8.474,8.474,0,0,0-8.474,8.474h8.1a8.051,8.051,0,0,0,1.223,5.948c1.43,2.1,3.918,3.622,4.4,6.118.464,2.419-1.181,4.715-2.906,6.474s-3.726,3.5-4.265,5.905a7.322,7.322,0,0,0,1.049,5.266,17.15,17.15,0,0,0,3.682,4.056A54.037,54.037,0,0,0,799.557,427.2c5.834,1.4,12.216,1.769,17.632-.815a17.51,17.51,0,0,0,7.709-24.409Z" transform="translate(-539.095 -255.683)"/><path class="c" d="M792.213,759.96H697.5a.5.5,0,1,1,0-1h94.713a.5.5,0,1,1,0,1Z" transform="translate(-504.58 -449.935)"/></g></svg>