<svg xmlns="http://www.w3.org/2000/svg" width="348.67" height="277.962" viewBox="0 0 348.67 277.962"><defs><style>.a{fill:#f2f2f2;}.b{fill:#3f3d56;}.c{fill:#ccc;}.d{fill:#a0616a;}.e{fill:#2f2e41;}.f{fill:#e6e6e6;}.g{fill:#c1121f;}.h{fill:#fff;}</style></defs><g transform="translate(0 0)"><path class="a" d="M441.608,372.492a1.508,1.508,0,0,0,1.092-2.614l-.1-.411.041-.1a3.862,3.862,0,0,1,5.032-2.069c6.19,2.559-.345,8.44.146,12.419.172,1.373,5.552,1.449,5.248,2.8a48.034,48.034,0,0,0,4.363-19.952,46.367,46.367,0,0,0-.289-5.172q-.239-2.112-.662-4.193a48.592,48.592,0,0,0-9.643-20.591c-2.3-1.257-.9-3.223-2.057-5.579-.417-.85-4.132-.869-4.287-1.8.166.022,2.568-2.473,1.775-3.706a2.044,2.044,0,0,1,.311-2.539,2.131,2.131,0,0,0,.185-.217c1.981-2.688,4.712-2.219,6.138,1.431,3.046,1.536,3.076,4.085,1.208,6.537-1.188,1.56-1.351,3.67-2.393,5.34.107.137.219.27.326.408a48.907,48.907,0,0,1,5.107,8.085,20.33,20.33,0,0,1,1.21-9.443c1.169-2.823,3.369-5.2,5.3-7.64a4.152,4.152,0,0,1,7.392,2.1l.011.106q-.428.241-.837.512a2.045,2.045,0,0,0,.827,3.722l.042.006c-.1,1.026-3.743,4.258-4,5.258,2.462,9.509.62,10.764-6.955,10.923l-.4.566a49.954,49.954,0,0,1,2.581,12.331,47.345,47.345,0,0,1-.032,7.645l.013-.09a12.511,12.511,0,0,1,4.268-7.225c3.286-2.7,7.929-3.7,11.474-5.868a2.348,2.348,0,0,1,3.6,2.283l-.014.095a13.741,13.741,0,0,0-1.541.743q-.428.242-.838.513a2.045,2.045,0,0,0,.827,3.722l.042.006.086.013c-.9,2.151-9.527,5.184-11.106,6.906-1.535,8.305-.781,8.058-7.849,5.642h0a49.9,49.9,0,0,1-3.349,9.787l-11.975,0c-.043-.133-.082-.27-.12-.4a13.6,13.6,0,0,0,3.314-.2c-.889-1.09-1.778-2.188-2.667-3.278a.739.739,0,0,1-.056-.064l-.013-.017-1.233-4.059a20.44,20.44,0,0,1,.472-2.672h0Z" transform="translate(-147.761 -106.354)"/><path class="b" d="M190.807,352.915l-105.967.037a14.694,14.694,0,0,1-12.761-22.085l52.95-96.392a14.726,14.726,0,0,1,25.507-.009l53.023,96.368a14.726,14.726,0,0,1-12.752,22.082h0ZM71.417,338.229c0,2.3,11.693-2.658,12.9-.562,2.423,4.193-4.326,13.957.518,13.955,0,0,115.147-2.544,117.567-6.739a13.26,13.26,0,0,0,0-13.4l-53.024-96.368a13.255,13.255,0,0,0-11.6-6.682c-4.841,0-66.363,107.49-66.363,109.792h0Z" transform="translate(-23.51 -76.183)"/><path class="b" d="M253.5,405.906c-1.328,2.659,60.882,1.842,61.617,1.841,0,0,17.486-.386,17.853-1.023a2.014,2.014,0,0,0,0-2.034l-8.052-14.634a2.013,2.013,0,0,0-1.761-1.015.254.254,0,0,0-.134.079c-10.741,9.6-23.979,15.944-38.383,16.158-15.316.228-31.056.458-31.14.627h0Z" transform="translate(-85.031 -130.503)"/><path class="c" d="M0,416.621a.788.788,0,0,0,.791.791l347.088-.12a.791.791,0,1,0,0-1.582L.791,415.83a.788.788,0,0,0-.791.791Z" transform="translate(0 -139.45)"/><g transform="translate(247.518 250.149)"><path class="d" d="M399.4,399.6l-6.011,0-2.868-23.184,8.871,0Z" transform="translate(-378.517 -376.418)"/><path class="e" d="M372.745,407.685h0a5.161,5.161,0,0,0-.285,1.7h0a2.04,2.04,0,0,0,2.041,2.039l18.614-.006a1.392,1.392,0,0,0,1.391-1.392v-.775a5.95,5.95,0,0,0-.977-5.2s-2.355,2.249-5.878-1.271l-1.039-1.881-7.514,5.5-4.166.514c-.911.112-1.719-.017-2.188.773Z" transform="translate(-372.46 -384.63)"/></g><g transform="translate(225.785 231.543)"><path class="d" d="M361.2,370.382l-5.693,1.926-10.142-21.044,8.4-2.844Z" transform="translate(-341.639 -348.421)"/><path class="e" d="M339.771,385.721h0a5.16,5.16,0,0,0,.274,1.7h0a2.04,2.04,0,0,0,2.586,1.278l17.632-5.968a1.392,1.392,0,0,0,.872-1.764l-.248-.734a5.95,5.95,0,0,0-2.591-4.613s-1.511,2.885-5.975.678l-1.586-1.449-5.357,7.616-3.782,1.821c-.827.4-1.634.535-1.825,1.433h0Z" transform="translate(-339.756 -357.287)"/></g><path class="e" d="M342.394,177.609,330.736,216.22l-13.764,34.73,21.79,49.6,8.079-3.595-9.667-45.562,20.273-30.917,9.461,96.514,8.08-.451,10.958-116.5,1.562-25.364Z" transform="translate(-106.328 -58.595)"/><path class="f" d="M388.69,50.385l-17.058,3.148-1.344,7.632-10.323,4.942L354.6,122.224s-8.974,11.675-1.79,15.264l45.788-4.505s2.242-8.3,0-9.088-2.252-20.614-2.252-20.614L406.651,62.5l-15.265-5.382-2.7-6.733Z" transform="translate(-117.414 -16.902)"/><circle class="d" cx="13.775" cy="13.775" r="13.775" transform="translate(247.44 5.787)"/><path class="e" d="M393.568,21.606c-1.1.6-.056,3.475-.743,3.723-.794.287-3.689-3.009-3.725-6.7a12.519,12.519,0,0,0,0-2.978c-.323-1.733-1.316-3.776-2.235-3.722-.545.032-1.077.8-1.116,1.49-.056.963.88,1.342.745,1.861-.257.988-4.186,1.671-5.584,0-1.1-1.308-.256-3.6-.746-3.723-.361-.087-.749,1.178-2.233,2.607-.559.538-1.39,1.339-1.861,1.118-.68-.32-.186-2.576-.373-2.606a18.393,18.393,0,0,1-1.116,2.979c-1.11,1.822-3.4,3.226-4.467,2.608-.654-.379-.706-1.433-.745-2.233-.083-1.687-2.534-5.567-1.9-7.371,1.291-3.673,3.5-1.084,4.5-2.309,1.354-1.659,2.569-.767,4.839-2.608,2.217-1.8,2.237-3.605,3.722-3.724,1.337-.107,1.813,1.319,3.351,1.116,1.3-.172,1.587-1.279,2.606-1.118.933.147.994,1.122,2.234,1.488.791.234.965-.1,1.861,0a5.356,5.356,0,0,1,3.351,2.233c.9,1.226.553,1.743,1.49,2.978.808,1.064,2.6.612,3.271,1.144,2.2,1.737,3.144,4.941,3.163,8.592a26.21,26.21,0,0,1-1.063,7.068c-.564,2.448-3.178,5.611-4.619,7.022-.387.379-1.471,1.44-2.233,1.118-.722-.306-.744-1.68-.745-1.861,0-.624.163-1.4,1.488-3.351,1.392-2.054,1.945-2.288,1.86-2.979-.149-1.222-2.1-2.34-2.979-1.86h0Z" transform="translate(-123.232 0)"/><g transform="translate(221.984 48.843)"><path class="d" d="M334.458,216.114c-.429,3.59,1.076,6.722,3.361,6.995s4.484-2.417,4.913-6.007a9.05,9.05,0,0,0-.452-4.25l1.626-15.236-7.166-.611-.842,15.085a9.05,9.05,0,0,0-1.44,4.024h0Z" transform="translate(-334.153 -114.928)"/><path class="f" d="M354.939,73.5s-3.713.053-6.171,4.854c-1.306,2.551-8.295,50.258-8.295,50.258l-6.438,39.081,10.966.055,8.545-37.011,7.189-21.466-5.8-35.772Z" transform="translate(-334.036 -73.498)"/></g><path class="d" d="M411.712,207.835c-1.05,3.46-.117,6.807,2.085,7.475s4.838-1.595,5.888-5.055a9.05,9.05,0,0,0,.3-4.263l4.266-14.717L417.3,189.42l-3.468,14.7a9.051,9.051,0,0,0-2.121,3.71h0Z" transform="translate(-137.964 -63.541)"/><path class="f" d="M417.075,68.986s5.386-4.042,9.877,2.241,6.3,57.908,6.3,57.908L420.7,161.013l-9.428-3.139,8.965-39.059L404.512,89.192l12.563-20.206h0Z" transform="translate(-135.693 -22.712)"/><g transform="translate(96.679 158.45)"><circle class="g" cx="48.512" cy="48.512" r="48.512"/><g transform="translate(32.38 15.702)"><circle class="h" cx="4.454" cy="4.454" r="4.454" transform="translate(11.686 53.641)"/><path class="h" d="M210.326,265.131c-.409,2.719.324,3.288.328,15.009s2.436,27.436-.313,27.437-3.755-32.432-13.3-35.3c-11.225-3.375,14.612-15.945,13.288-7.144Z" transform="translate(-194.205 -262.059)"/></g></g><path class="b" d="M94.412,319.783l-4.383,9.261c5.3-3.8,13.575-7.075,20.161-8.829-6.136-2.964-13.645-7.743-18.131-12.475l2.521,9.785C65.024,311.5,43.8,288.832,43.791,262.859l-1.068-.367c.009,27.129,20.94,51.145,51.688,57.291Z" transform="translate(-14.332 -88.053)"/></g></svg>